<svg width="732" height="42" viewBox="0 0 732 42" fill="none" xmlns="http://www.w3.org/2000/svg">
<path d="M712.301 20.9268L723.665 0.851074H731.826L715.805 27.8857V40.9024H708.546V27.8857L692.625 0.851074H700.786L712.301 20.9268Z" fill="#F0F0F0"/>
<path d="M656.378 7.15916V0.851074H686.617V7.15916H675.152V40.9024H667.893V7.15916H656.378Z" fill="#F0F0F0"/>
<path d="M647.362 25.3825C647.362 28.62 646.678 31.4736 645.31 33.9435C643.975 36.3799 642.089 38.2824 639.652 39.6508C637.216 40.9858 634.379 41.6533 631.141 41.6533C627.904 41.6533 625.067 40.9858 622.631 39.6508C620.194 38.2824 618.292 36.3799 616.923 33.9435C615.588 31.4736 614.921 28.62 614.921 25.3825V0.851074H622.18V26.1835C622.18 27.8523 622.564 29.3709 623.331 30.7394C624.132 32.1078 625.217 33.1925 626.586 33.9935C627.954 34.7612 629.473 35.145 631.141 35.145C632.81 35.145 634.329 34.7612 635.697 33.9935C637.066 33.1925 638.134 32.1078 638.901 30.7394C639.702 29.3709 640.103 27.8523 640.103 26.1835V0.851074H647.362V25.3825Z" fill="#F0F0F0"/>
<path d="M589.902 0.851074L605.922 40.9024H598.413L593.607 28.3363H578.988L574.232 40.9024H566.722L582.643 0.851074H589.902ZM591.604 22.9794L586.297 9.06159L581.041 22.9794H591.604Z" fill="#F0F0F0"/>
<path d="M559.225 0.851074V7.35941H538.598V16.8716H556.221V23.3799H538.598V34.394H559.225V40.9024H531.339V0.851074H559.225Z" fill="#F0F0F0"/>
<path d="M507.319 0.851074C509.655 0.851074 511.774 1.31834 513.677 2.25287C515.613 3.15402 517.115 4.40563 518.183 6.00768C519.284 7.57636 519.835 9.34529 519.835 11.3145C519.835 13.2503 519.267 14.9859 518.133 16.5212C517.031 18.0565 515.529 19.258 513.627 20.1258C515.696 21.0269 517.332 22.3119 518.533 23.9807C519.735 25.6495 520.335 27.5186 520.335 29.5879C520.335 31.724 519.768 33.6598 518.633 35.3953C517.498 37.0975 515.93 38.4492 513.927 39.4505C511.958 40.4184 509.755 40.9024 507.319 40.9024H488.344V0.851074H507.319ZM507.319 34.6444C508.887 34.6444 510.189 34.0937 511.224 32.9923C512.292 31.8575 512.826 30.489 512.826 28.887C512.826 27.2849 512.292 25.9332 511.224 24.8318C510.189 23.697 508.887 23.1296 507.319 23.1296H495.604V34.6444H507.319ZM507.319 17.1219C508.721 17.1219 509.905 16.638 510.873 15.6701C511.841 14.6688 512.325 13.4839 512.325 12.1155C512.325 10.7471 511.841 9.57892 510.873 8.61102C509.905 7.60973 508.721 7.10909 507.319 7.10909H495.604V17.1219H507.319Z" fill="#F0F0F0"/>
<path d="M443.735 0.851074C446.172 0.851074 448.375 1.38509 450.344 2.45313C452.346 3.48778 453.915 4.92296 455.05 6.75864C456.185 8.56095 456.752 10.5969 456.752 12.8665C456.752 14.869 456.301 16.7214 455.4 18.4236C454.499 20.0924 453.231 21.4775 451.595 22.5789C449.993 23.6803 448.158 24.3812 446.088 24.6816L458.805 40.9024H450.244L437.678 24.8819H433.522V40.9024H426.263V0.851074H443.735ZM443.735 18.3735C445.304 18.3735 446.606 17.8562 447.64 16.8215C448.708 15.7535 449.242 14.4351 449.242 12.8665C449.242 11.2978 448.708 9.99612 447.64 8.96147C446.606 7.89343 445.304 7.35941 443.735 7.35941H433.522V18.3735H443.735Z" fill="#F0F0F0"/>
<path d="M413.742 25.3825C413.742 28.62 413.058 31.4736 411.69 33.9435C410.355 36.3799 408.469 38.2824 406.033 39.6508C403.596 40.9858 400.759 41.6533 397.522 41.6533C394.284 41.6533 391.447 40.9858 389.011 39.6508C386.574 38.2824 384.672 36.3799 383.303 33.9435C381.968 31.4736 381.301 28.62 381.301 25.3825V0.851074H388.56V26.1835C388.56 27.8523 388.944 29.3709 389.712 30.7394C390.513 32.1078 391.597 33.1925 392.966 33.9935C394.334 34.7612 395.853 35.145 397.522 35.145C399.19 35.145 400.709 34.7612 402.078 33.9935C403.446 33.1925 404.514 32.1078 405.282 30.7394C406.083 29.3709 406.483 27.8523 406.483 26.1835V0.851074H413.742V25.3825Z" fill="#F0F0F0"/>
<path d="M350.481 41.8537C346.576 41.8537 343.039 40.9525 339.868 39.1502C336.697 37.3145 334.194 34.8113 332.358 31.6406C330.556 28.4698 329.655 24.932 329.655 21.027C329.655 17.122 330.556 13.6008 332.358 10.4634C334.194 7.29271 336.697 4.80619 339.868 3.00388C343.039 1.20157 346.576 0.300415 350.481 0.300415C354.386 0.300415 357.924 1.20157 361.095 3.00388C364.266 4.80619 366.752 7.29271 368.555 10.4634C370.39 13.6008 371.308 17.122 371.308 21.027C371.308 24.932 370.39 28.4698 368.555 31.6406C366.752 34.8113 364.266 37.3145 361.095 39.1502C357.924 40.9525 354.386 41.8537 350.481 41.8537ZM337.164 21.027C337.164 23.6971 337.732 26.1335 338.867 28.3363C340.035 30.5058 341.637 32.2247 343.673 33.4929C345.709 34.7279 347.978 35.3453 350.481 35.3453C352.985 35.3453 355.254 34.7279 357.29 33.4929C359.326 32.2247 360.912 30.5058 362.046 28.3363C363.214 26.1335 363.799 23.6971 363.799 21.027C363.799 18.3569 363.214 15.9371 362.046 13.7677C360.912 11.5982 359.326 9.89604 357.29 8.66113C355.254 7.42621 352.985 6.80875 350.481 6.80875C347.978 6.80875 345.709 7.42621 343.673 8.66113C341.637 9.89604 340.035 11.5982 338.867 13.7677C337.732 15.9371 337.164 18.3569 337.164 21.027Z" fill="#F0F0F0"/>
<path d="M303.134 20.9268L314.499 0.851074H322.659L306.639 27.8857V40.9024H299.379V27.8857L283.459 0.851074H291.619L303.134 20.9268Z" fill="#F0F0F0"/>
<path d="M236.178 11.2144C236.178 12.1823 236.428 12.9833 236.929 13.6174C237.43 14.2516 238.064 14.7689 238.831 15.1694C239.599 15.5366 240.7 15.9871 242.136 16.5212C242.469 16.6213 242.837 16.7548 243.237 16.9217L244.589 17.4223C246.792 18.19 248.694 19.0077 250.296 19.8755C251.898 20.7099 253.317 21.9615 254.552 23.6303C255.82 25.2991 256.454 27.4185 256.454 29.9884C256.454 32.4582 255.837 34.5943 254.602 36.3966C253.367 38.1656 251.681 39.534 249.545 40.5019C247.442 41.4364 245.056 41.9037 242.386 41.9037C239.549 41.9037 236.979 41.3196 234.676 40.1514C232.407 38.9499 230.604 37.2978 229.269 35.1951C227.967 33.0924 227.317 30.7561 227.317 28.1861H234.826C234.826 30.2554 235.527 31.9743 236.929 33.3427C238.364 34.7111 240.183 35.3953 242.386 35.3953C244.288 35.3953 245.857 34.8947 247.092 33.8934C248.327 32.8588 248.944 31.507 248.944 29.8382C248.944 28.8369 248.694 28.0192 248.193 27.3851C247.726 26.7176 247.109 26.1835 246.341 25.783C245.573 25.3491 244.455 24.8485 242.987 24.2811L241.585 23.7304C238.982 22.6624 236.829 21.6778 235.127 20.7766C233.424 19.8755 231.923 18.6239 230.621 17.0218C229.319 15.3864 228.668 13.4005 228.668 11.0642C228.668 8.9281 229.236 7.02566 230.371 5.35686C231.505 3.65468 233.057 2.33632 235.027 1.40179C236.996 0.467263 239.199 0 241.635 0C244.305 0 246.658 0.634144 248.694 1.90244C250.763 3.13735 252.365 4.80616 253.5 6.90885C254.635 8.97817 255.202 11.2477 255.202 13.7176H247.943C247.943 11.5481 247.409 9.81257 246.341 8.5109C245.306 7.17586 243.771 6.50834 241.735 6.50834C240.1 6.50834 238.765 6.94223 237.73 7.81001C236.695 8.64441 236.178 9.77919 236.178 11.2144Z" fill="#F0F0F0"/>
<path d="M200.796 20.9268L212.161 0.851074H220.321L204.301 27.8857V40.9024H197.041V27.8857L181.121 0.851074H189.281L200.796 20.9268Z" fill="#F0F0F0"/>
<path d="M165.608 0.851074L181.629 40.9024H174.119L169.313 28.3363H154.694L149.938 40.9024H142.428L158.349 0.851074H165.608ZM167.31 22.9794L162.004 9.06159L156.747 22.9794H167.31Z" fill="#F0F0F0"/>
<path d="M98.1355 30.7894L107.748 0.851074H115.808L125.37 30.7894L133.481 0.851074H140.94L129.426 40.9024H121.766L111.753 10.8138L101.69 40.9024H94.0302L82.6156 0.851074H90.0752L98.1355 30.7894Z" fill="#F0F0F0"/>
<path d="M55.9584 34.394H76.5848V40.9024H48.6991V0.851074H55.9584V34.394Z" fill="#F0F0F0"/>
<path d="M23.1797 0.851074L39.2002 40.9024H31.6906L26.8844 28.3363H12.2657L7.50962 40.9024H0L15.9204 0.851074H23.1797ZM24.8819 22.9794L19.5751 9.06159L14.3183 22.9794H24.8819Z" fill="#F0F0F0"/>
</svg>
